<?xml version="1.0" encoding="utf-8"?>
<!-- Generator: Adobe Illustrator 27.8.1, SVG Export Plug-In . SVG Version: 6.00 Build 0)  -->
<svg version="1.1" id="레이어_1" xmlns="http://www.w3.org/2000/svg" xmlns:xlink="http://www.w3.org/1999/xlink" x="0px"
	 y="0px" viewBox="0 0 640 640" style="enable-background:new 0 0 640 640;" xml:space="preserve">
<style type="text/css">
	.st0{fill:#1E1E1E;}
</style>
<polygon class="st0" points="320.3,43 80.1,459 560.5,459 "/>
<g>
	<polygon class="st0" points="255.1,129.2 217.4,38.1 249.3,139.3 	"/>
	<polygon class="st0" points="363.4,90.8 372.1,24.6 359.1,83.4 	"/>
	<polygon class="st0" points="281.1,84.2 267.9,24.6 276.8,91.7 	"/>
	<polygon class="st0" points="235.5,163.1 170,60.2 229.3,174 	"/>
	<polygon class="st0" points="205.3,215.5 90.2,127.2 198.8,226.7 	"/>
	<polygon class="st0" points="178.6,261.7 38.1,217.4 172.2,272.9 	"/>
	<polygon class="st0" points="390.9,138.6 422.6,38.1 385.1,128.6 	"/>
	<polygon class="st0" points="219.5,191 127.2,90.2 213,202.1 	"/>
	<polygon class="st0" points="191.9,238.6 60.2,170 185.5,249.8 	"/>
	<polygon class="st0" points="482.6,297.3 615.4,267.9 476.2,286.3 	"/>
	<polygon class="st0" points="468.3,272.7 601.9,217.4 461.9,261.6 	"/>
	<polygon class="st0" points="492.5,314.5 498.7,325.3 620,320 	"/>
	<polygon class="st0" points="427.3,201.6 512.8,90.2 420.9,190.5 	"/>
	<polygon class="st0" points="411,173.4 470,60.2 404.8,162.6 	"/>
	<polygon class="st0" points="455,249.5 579.8,170 448.5,238.4 	"/>
	<polygon class="st0" points="441.6,226.3 549.8,127.2 435.1,215.2 	"/>
	<polygon class="st0" points="441.9,472.4 512.8,549.8 453.4,472.4 	"/>
	<polygon class="st0" points="369,472.4 422.6,601.9 381.7,472.4 	"/>
	<polygon class="st0" points="401.6,472.4 470,579.8 414,472.4 	"/>
	<polygon class="st0" points="340.4,472.4 372.1,615.4 353.2,472.4 	"/>
	<polygon class="st0" points="313.6,472.4 320,620 326.4,472.4 	"/>
	<polygon class="st0" points="518.3,359.3 615.4,372.1 512.6,349.3 	"/>
	<polygon class="st0" points="286.8,472.4 267.9,615.4 299.6,472.4 	"/>
	<polygon class="st0" points="544.4,404.5 601.9,422.6 540.1,397 	"/>
	<polygon class="st0" points="164.4,286.3 24.6,267.9 158,297.5 	"/>
	<polygon class="st0" points="497.1,472.4 549.8,512.8 505.6,472.4 	"/>
	<polygon class="st0" points="100.7,396.7 38.1,422.6 96.3,404.2 	"/>
	<polygon class="st0" points="128.1,349.2 24.6,372.1 122.3,359.2 	"/>
	<polygon class="st0" points="148.2,314.4 20,320 141.9,325.3 	"/>
	<polygon class="st0" points="186.6,472.4 127.2,549.8 198.1,472.4 	"/>
	<polygon class="st0" points="226,472.4 170,579.8 238.4,472.4 	"/>
	<polygon class="st0" points="258.3,472.4 217.4,601.9 271,472.4 	"/>
	<polygon class="st0" points="134.4,472.4 90.2,512.8 142.9,472.4 	"/>
</g>
<g>
</g>
<g>
</g>
<g>
</g>
<g>
</g>
<g>
</g>
<g>
</g>
<g>
</g>
<g>
</g>
<g>
</g>
<g>
</g>
<g>
</g>
<g>
</g>
<g>
</g>
<g>
</g>
<g>
</g>
</svg>
