<?xml version="1.0" encoding="utf-8"?>
<!-- Generator: Adobe Illustrator 27.8.1, SVG Export Plug-In . SVG Version: 6.00 Build 0)  -->
<svg version="1.1" id="레이어_1" xmlns="http://www.w3.org/2000/svg" xmlns:xlink="http://www.w3.org/1999/xlink" x="0px"
	 y="0px" viewBox="0 0 640 640" style="enable-background:new 0 0 640 640;" xml:space="preserve">
<style type="text/css">
	.st0{fill:#F9F8F4;}
</style>
<g>
	<g>
		<path class="st0" d="M228.1,356.1c-0.1,0.1-0.2,0.1-0.2,0.2h5.4v-4.8C231.7,353.2,230,354.7,228.1,356.1z M418.4,303.2
			c0.7-0.7,1.3-1.3,2-1.9C419.7,301.8,419.1,302.5,418.4,303.2c-1.3,1.3-2.6,2.7-3.8,4.1C415.8,305.9,417.1,304.5,418.4,303.2z
			 M372.1,24.6l-13.5,60.9l4.4,7.7L372.1,24.6z M187.6,278.1c17.8,0,31.1,3.5,40.6,10.8c1.9,1.4,3.5,3,5.1,4.6v-6.5v-9h9H297
			c17.4,0,30.4,5.4,38.4,15.5v-6.5v-9h9h31.2h9v9v69.1h10.3c-1-4.6-1.6-9.4-1.6-14.4c0-17.5,6.3-32.7,18.7-45
			c12.1-12.1,26.8-18.3,43.7-18.6L320.5,43.9L185.3,278.1H187.6z M422.6,38.1l-38.2,92.2l5.9,10.2L422.6,38.1z M203.2,323
			c0,0.1,0,0.3,0,0.4C203.2,323.3,203.2,323.1,203.2,323L203.2,323z M256,131.3l-38.6-93.2L250,141.6L256,131.3z M135.3,325h0.3
			v-6.6V315l-9.3,0.4v9.2L135.3,325z M281.7,86.7l-13.8-62.2l9.2,70L281.7,86.7z M320,20l0,0.4l0-0.1L320,20z M467,273.2l134.9-55.9
			L460.5,262L467,273.2z M446.9,331.6c-2.9,2.9-4.2,6.1-4.2,10.2c0,4.1,1.3,7.3,4.2,10.2c2.9,2.9,6.1,4.2,10.2,4.2
			c4.1,0,7.3-1.3,10.2-4.2c2.9-2.9,4.2-6.1,4.2-10.2c0-4.1-1.3-7.3-4.2-10.2c-2.9-2.9-6.1-4.2-10.2-4.2
			C453,327.4,449.8,328.7,446.9,331.6z M545.5,283.4c7.3-3.2,15.1-5,23.6-5.2l46.4-10.3L486.1,285c4.5,2.3,8.8,5.3,12.8,8.8
			L545.5,283.4z M615.4,319.8v0.4l4.6-0.2L615.4,319.8z M495.7,380.5c0.7-0.7,1.3-1.3,1.9-2C497.1,379.2,496.4,379.8,495.7,380.5
			c-1.3,1.3-2.7,2.6-4.1,3.8C493,383.1,494.4,381.8,495.7,380.5z M453.7,250.3L579.8,170l-132.6,69L453.7,250.3z M236.6,164.8
			L170,60.2l60.2,115.7L236.6,164.8z M426.4,202.8l86.5-112.7l-92.9,101.5L426.4,202.8z M440.5,227.3l109.3-100.2L434,216.1
			L440.5,227.3z M410.2,174.9L470,60.2L403.9,164L410.2,174.9z M440.6,471l72.2,78.8L452.3,471H440.6z M340.1,471l32,144.4
			l-19-144.4H340.1z M368.4,471l54.2,130.9L381.3,471H368.4z M320,620l6.5-149h-13L320,620z M267.9,615.4l32-144.4h-13L267.9,615.4z
			 M258.7,471l-41.3,130.9L271.6,471H258.7z M400.7,471L470,579.8L413.3,471H400.7z M538.1,396.4l4.3,7.5l59.5,18.8L557,404
			C550.2,402.5,543.9,400,538.1,396.4z M502.1,386.9c-12.4,12.4-27.5,18.7-45,18.7c-15.7,0-29.5-5.1-41.2-15.1v6.1v9h-9h-62.5h-9v-9
			v-4c-7,7.5-18.8,13-38.4,13h-53.5h-1.2h-7.8h-1.2h-92.6h-9v-9v-22.2h-1.9l-3.5,6v16.2v9h-9h-5.6L81,458.8h479l-48.4-83.8
			C509,379.2,505.8,383.1,502.1,386.9z M226.7,471L170,579.8L239.3,471H226.7z M495.3,471l54.5,41.8L504.1,471H495.3z M78.2,278.1
			h11.7l-1.1,4l46.8,10.4v-5.4v-4.6L24.6,267.9l46.2,10.2H78.2z M220.7,192.3L127.2,90.2l87,113.4L220.7,192.3z M193.5,239.4
			L60.2,170L187,250.7L193.5,239.4z M187.7,471l-60.5,78.8l72.2-78.8H187.7z M206.7,216.6L90.2,127.2l110,100.7L206.7,216.6z
			 M180.3,262.3L38.1,217.4l135.7,56.2L180.3,262.3z M27.6,320.3l0.2-0.7L20,320L27.6,320.3z M135.9,471l-45.7,41.8l54.5-41.8H135.9
			z M60.5,469.8L60.5,469.8l-0.3,0.2L60.5,469.8z M86.1,405.5h-6.7l-41.3,17.1l54.2-17.1H86.1z"/>
	</g>
</g>
<g>
	<path class="st0" d="M117.3,365.3v31.2H86.1v-31.2H23.6L47,287.1h31.2L65.8,334h20.2v-31.2h31.2V334h15.6v31.2H117.3z"/>
	<path class="st0" d="M187.6,287.1c31.2,0,46.9,12,46.9,35.9c0,23-15.6,34.5-46.9,34.5c-10.4,0-15.6,1.1-15.6,3.2v4.6h62.5v31.2
		h-93.8v-35.9c0-23,15.6-34.5,46.9-34.5h7.8c5.2,0,7.8-1.1,7.8-3.2c0-3.1-2.6-4.6-7.8-4.6h-50.8v-31.2H187.6z"/>
	<path class="st0" d="M242.3,396.5V287.1H297c26,0,39.1,13,39.1,39.1c0,8.5-3.3,15-9.8,19.5c6.5,4.5,9.8,11,9.8,19.5
		c0,20.8-13,31.2-39.1,31.2H242.3z M273.6,318.4V334H297c5.2,0,7.8-2.6,7.8-7.8c0-5.2-2.6-7.8-7.8-7.8H273.6z M273.6,357.5v15.6H297
		c5.2,0,7.8-2.6,7.8-7.8c0-5.2-2.6-7.8-7.8-7.8H273.6z"/>
	<path class="st0" d="M375.7,365.3h31.2v31.2h-62.5V287.1h31.2V365.3z"/>
	<path class="st0" d="M457.1,396.5c-15.1,0-28-5.3-38.7-16c-10.7-10.7-16-23.6-16-38.7c0-15.1,5.3-28,16-38.7
		c10.7-10.7,23.6-16,38.7-16c15.1,0,28,5.3,38.7,16c10.7,10.7,16,23.6,16,38.7c0,15.1-5.3,28-16,38.7
		C485.1,391.2,472.2,396.5,457.1,396.5z M473.6,358.4c4.6-4.6,6.9-10.1,6.9-16.6c0-6.5-2.3-12-6.9-16.6c-4.6-4.6-10.1-6.9-16.6-6.9
		c-6.5,0-12,2.3-16.6,6.9c-4.6,4.6-6.9,10.1-6.9,16.6c0,6.5,2.3,12,6.9,16.6c4.6,4.6,10.1,6.9,16.6,6.9
		C463.5,365.3,469,363,473.6,358.4z"/>
	<path class="st0" d="M582.9,365.3V334h31.2v62.5h-43c-15.1,0-28-5.3-38.7-16c-10.7-10.7-16-23.6-16-38.7c0-15.1,5.3-28,16-38.7
		c10.7-10.7,23.6-16,38.7-16h35.2v31.2h-35.2c-6.5,0-12,2.3-16.6,6.9c-4.6,4.6-6.9,10.1-6.9,16.6c0,6.5,2.3,12,6.9,16.6
		c4.6,4.6,10.1,6.9,16.6,6.9H582.9z"/>
</g>
<g>
</g>
<g>
</g>
<g>
</g>
<g>
</g>
<g>
</g>
<g>
</g>
<g>
</g>
<g>
</g>
<g>
</g>
<g>
</g>
<g>
</g>
<g>
</g>
<g>
</g>
<g>
</g>
<g>
</g>
</svg>