<svg width="126" height="24" viewBox="0 0 126 24" fill="none" xmlns="http://www.w3.org/2000/svg">
<path d="M4 21V16C4 15.45 4.196 14.979 4.588 14.587C4.98 14.195 5.45067 13.9993 6 14H18C18.55 14 19.021 14.196 19.413 14.588C19.805 14.98 20.0007 15.4507 20 16V21H4ZM9 13C7.61667 13 6.43733 12.5123 5.462 11.537C4.48667 10.5617 3.99933 9.38267 4 8C4 6.61667 4.48767 5.43733 5.463 4.462C6.43833 3.48667 7.61733 2.99933 9 3H15C16.3833 3 17.5627 3.48767 18.538 4.463C19.5133 5.43833 20.0007 6.61733 20 8C20 9.38333 19.5123 10.5627 18.537 11.538C17.5617 12.5133 16.3827 13.0007 15 13H9ZM6 19H18V16H6V19ZM9 11H15C15.8333 11 16.5417 10.7083 17.125 10.125C17.7083 9.54167 18 8.83333 18 8C18 7.16667 17.7083 6.45833 17.125 5.875C16.5417 5.29167 15.8333 5 15 5H9C8.16667 5 7.45833 5.29167 6.875 5.875C6.29167 6.45833 6 7.16667 6 8C6 8.83333 6.29167 9.54167 6.875 10.125C7.45833 10.7083 8.16667 11 9 11ZM9 9C9.28333 9 9.521 8.904 9.713 8.712C9.905 8.52 10.0007 8.28267 10 8C10 7.71667 9.904 7.479 9.712 7.287C9.52 7.095 9.28267 6.99933 9 7C8.71667 7 8.479 7.096 8.287 7.288C8.095 7.48 7.99933 7.71733 8 8C8 8.28333 8.096 8.521 8.288 8.713C8.48 8.905 8.71733 9.00067 9 9ZM15 9C15.2833 9 15.521 8.904 15.713 8.712C15.905 8.52 16.0007 8.28267 16 8C16 7.71667 15.904 7.479 15.712 7.287C15.52 7.095 15.2827 6.99933 15 7C14.7167 7 14.479 7.096 14.287 7.288C14.095 7.48 13.9993 7.71733 14 8C14 8.28333 14.096 8.521 14.288 8.713C14.48 8.905 14.7173 9.00067 15 9Z" fill="#1B1B1B"/>
<path d="M36.125 17.5H34.2969L38.3594 6.1875H40.3438L44.4219 17.5H42.5938L41.5625 14.5156H37.1562L36.125 17.5ZM37.6562 13.0781H41.0625L39.3906 8.25H39.3125L37.6562 13.0781ZM47.5781 6.1875V17.5H45.8594V6.1875H47.5781ZM64.3281 5.42188V6.34375C64.3281 7.27344 64.3281 8.44531 64.0312 9.96875H65.9531V11.1562H53.1406V9.96875H62.5469C62.8281 8.54688 62.8594 7.47656 62.8594 6.60938H54.75V5.42188H64.3281ZM64.3438 12.4062V16.0781H56.1406V17.5H64.7031V18.6875H54.6562V14.9375H62.875V13.5938H54.6406V12.4062H64.3438ZM75.75 8.95312C75.75 11.1719 77.2031 13.6406 79.3281 14.6406L78.4844 15.7969C76.9141 15.0391 75.6719 13.4609 75.0469 11.625C74.3984 13.6328 73.0859 15.3594 71.4844 16.1562L70.6094 14.9844C72.7344 13.9688 74.2812 11.3281 74.2812 8.95312V7.46875H71.125V6.23438H78.7969V7.46875H75.75V8.95312ZM81.7812 4.82812V10.375H84.0312V11.625H81.7812V18.8281H80.2969V4.82812H81.7812ZM97.4844 11.6406V12.8281H84.7031V11.6406H90.375V10.1562H86.2969V5.46875H95.9062V6.64062H87.7656V8.96875H96V10.1562H91.8125V11.6406H97.4844ZM91.0781 13.7344C94.0938 13.7344 95.9062 14.6562 95.9062 16.2812C95.9062 17.9062 94.0938 18.8125 91.0781 18.8281C88.0469 18.8125 86.2188 17.9062 86.2188 16.2812C86.2188 14.6562 88.0469 13.7344 91.0781 13.7344ZM91.0781 14.8906C88.9375 14.8906 87.7188 15.3906 87.7188 16.2812C87.7188 17.1719 88.9375 17.6719 91.0781 17.6562C93.1875 17.6719 94.4219 17.1719 94.4219 16.2812C94.4219 15.3906 93.1875 14.8906 91.0781 14.8906ZM102.781 5.45312C104.828 5.45312 106.266 6.57812 106.281 8.25C106.266 9.67188 105.188 10.7188 103.562 10.9688V12.2031C104.805 12.1406 106.047 12.0312 107.203 11.8594L107.312 12.9531C104.375 13.4844 101.078 13.5312 98.6719 13.5312L98.5156 12.3281C99.5625 12.3359 100.789 12.3281 102.078 12.2812V10.9844C100.406 10.75 99.2812 9.69531 99.2969 8.25C99.2812 6.57812 100.734 5.45312 102.781 5.45312ZM102.781 6.59375C101.547 6.59375 100.672 7.23438 100.688 8.25C100.672 9.23438 101.547 9.89062 102.781 9.89062C104.031 9.89062 104.875 9.23438 104.875 8.25C104.875 7.23438 104.031 6.59375 102.781 6.59375ZM109.547 4.84375V9.46875H111.547V10.7188H109.547V15.5469H108.062V4.84375H109.547ZM110.047 17.3125V18.5312H100.5V14.6094H101.984V17.3125H110.047ZM117.328 6.92188C117.328 8.89062 118.594 10.6406 120.719 11.3281L119.906 12.4844C118.367 11.9297 117.234 10.8516 116.625 9.45312C116.016 11.0547 114.797 12.2969 113.109 12.9062L112.312 11.7188C114.547 10.9531 115.844 9.09375 115.859 6.98438V5.60938H117.328V6.92188ZM124.031 4.82812V13.0938H122.547V8.89062H119.594V7.67188H122.547V4.82812H124.031ZM119.344 13.4844C122.281 13.4844 124.078 14.4531 124.078 16.1562C124.078 17.8438 122.281 18.8125 119.344 18.7969C116.406 18.8125 114.594 17.8438 114.609 16.1562C114.594 14.4531 116.406 13.4844 119.344 13.4844ZM119.344 14.6406C117.297 14.6406 116.078 15.1875 116.078 16.1562C116.078 17.0938 117.297 17.625 119.344 17.625C121.391 17.625 122.609 17.0938 122.609 16.1562C122.609 15.1875 121.391 14.6406 119.344 14.6406Z" fill="black"/>
</svg>
