<?xml version="1.0" encoding="utf-8"?>
<!-- Generator: Adobe Illustrator 27.8.1, SVG Export Plug-In . SVG Version: 6.00 Build 0)  -->
<svg version="1.1" id="레이어_1" xmlns:sketch="http://www.bohemiancoding.com/sketch/ns"
	 xmlns="http://www.w3.org/2000/svg" xmlns:xlink="http://www.w3.org/1999/xlink" x="0px" y="0px" viewBox="0 0 30 30"
	 style="enable-background:new 0 0 30 30;" xml:space="preserve">
<style type="text/css">
	.st0{fill-rule:evenodd;clip-rule:evenodd;fill:#4285F4;}
	.st1{fill-rule:evenodd;clip-rule:evenodd;fill:#34A853;}
	.st2{fill-rule:evenodd;clip-rule:evenodd;fill:#FBBC05;}
	.st3{fill-rule:evenodd;clip-rule:evenodd;fill:#EA4335;}
	.st4{fill:none;}
</style>
<g id="_x39_-PATCH" transform="translate(-608.000000, -160.000000)" sketch:type="MSArtboardGroup">
</g>
<g id="btn_google_light_normal" transform="translate(-1.000000, -1.000000)" sketch:type="MSArtboardGroup">
	<g id="logo_googleg_48dp" transform="translate(15.000000, 15.000000)" sketch:type="MSLayerGroup">
		<path id="Shape" sketch:type="MSShapeGroup" class="st0" d="M9.6,1.2c0-0.6-0.1-1.3-0.2-1.8H1v3.5h4.8C5.6,4,5,4.9,4,5.6v2.3H7
			C8.7,6.3,9.6,3.9,9.6,1.2L9.6,1.2z"/>
		<path id="Shape_00000173136324321398778550000010977289008528890303_" sketch:type="MSShapeGroup" class="st1" d="M1,10
			c2.4,0,4.5-0.8,6-2.2L4,5.6C3.2,6.1,2.2,6.4,1,6.4c-2.3,0-4.3-1.6-5-3.7h-3V5C-5.6,8-2.5,10,1,10L1,10z"/>
		<path id="Shape_00000110437561940803027130000006489110017559861926_" sketch:type="MSShapeGroup" class="st2" d="M-4,2.7
			C-4.2,2.2-4.3,1.6-4.3,1S-4.2-0.2-4-0.7V-3h-3c-0.6,1.2-1,2.6-1,4s0.3,2.8,1,4L-4,2.7L-4,2.7z"/>
		<path id="Shape_00000152986829691618910820000017588572716177173680_" sketch:type="MSShapeGroup" class="st3" d="M1-4.4
			c1.3,0,2.5,0.5,3.4,1.3L7-5.7C5.5-7.1,3.4-8,1-8c-3.5,0-6.6,2-8,5l3,2.3C-3.3-2.8-1.3-4.4,1-4.4L1-4.4z"/>
		<path id="Shape_00000106864922682459687840000001805560409259801260_" sketch:type="MSShapeGroup" class="st4" d="M-8-8h18v18H-8
			V-8z"/>
	</g>
	<g id="handles_square" sketch:type="MSLayerGroup">
	</g>
</g>
</svg>
